<?xml version="1.0" encoding="UTF-8" standalone="no"?>
<svg width="228px" height="68px" viewBox="0 0 228 68" version="1.1" xmlns="http://www.w3.org/2000/svg" xmlns:xlink="http://www.w3.org/1999/xlink" xmlns:sketch="http://www.bohemiancoding.com/sketch/ns">
    <title>EN24</title>
    <description>Created with Sketch (http://www.bohemiancoding.com/sketch)</description>
    <defs></defs>
    <g id="Page-2" stroke="none" stroke-width="1" fill="none" fill-rule="evenodd" sketch:type="MSPage">
        <g id="EN24" sketch:type="MSLayerGroup" transform="translate(0.000000, 1.000000)" fill="#FFFFFF">
            <path d="M3.22,0.42 C5.46,-7.16093851e-15 7.74,0.18 10,0.16 C80.68,0.41 151.37,-0.28 222.05,0.1 C224.48,-0.16 227.84,1.01 227.78,3.92 C227.97,20.29 227.89,36.68 227.94,53.06 C228.37,55.86 225.83,58.38 223.04,57.99 C191.35,58.06 159.65,57.89 127.95,58.08 C122.87,59.7 119.13,64.24 114.15,66.16 C109.93,63.72 106.07,60.7 101.86,58.26 C99.93,57.79 97.9,58.06 95.94,57.99 C65.6,57.88 35.27,57.68 4.94,57.75 C2.21,58.19 0.02,55.64 0.35,53.01 C0.25,36.98 0.23,20.94 0.3,4.91 C0.09,2.94 1.37,1.05 3.22,0.42 Z M200.3,9.26 C202.1,8.3 203.72,6.58 205.9,6.62 C210.14,6.55 214.39,6.65 218.64,6.57 C218.77,21.01 218.54,35.45 218.71,49.88 C214.82,50.24 210.91,50.01 207.01,49.99 C206.98,47 206.94,44 206.92,41 C195.89,40.98 184.87,41.01 173.84,40.99 C173.85,36 173.56,31 173.86,26.01 C182.41,20.08 191.55,14.94 200.3,9.26 Z M120.34,10.4 C123.94,7.61 128.7,7.23 133.1,7.33 C141.42,7.09 149.85,6.42 158.1,7.9 C161.72,8.54 165.71,10.93 166.04,14.95 C166.79,19.7 167.05,24.82 165.27,29.36 C162.28,33.5 156.76,34.44 152.01,34.93 C145.15,35.34 138.12,34.8 131.41,36.51 C129.15,36.92 129.1,39.46 128.9,41.24 C141.56,41.49 154.23,41.4 166.89,41.4 C166.98,44.26 167.01,47.13 167,50 C150.44,49.88 133.87,50.24 117.32,49.84 C117.66,44.1 116.64,38.16 118.56,32.61 C119.53,29.78 122.24,28.08 125.04,27.44 C133.89,25.64 143.07,26.55 151.93,24.84 C156.44,23.68 155.78,15.99 151.08,15.64 C145.13,14.69 138.95,14.89 133.02,15.85 C129.67,16.23 129.35,20.09 128.86,22.69 C125.01,22.64 121.17,22.64 117.32,22.63 C117.6,18.48 117.16,13.59 120.34,10.4 Z M7.84,7.84 C22.49,7.93 37.15,7.58 51.79,7.96 C51.69,11.35 51.69,14.75 51.82,18.14 C41.27,18.51 30.7,18.28 20.15,18.26 C20.16,20.35 20.17,22.44 20.18,24.54 C30.23,24.44 40.27,24.53 50.32,24.52 C50.29,27.51 50.29,30.49 50.32,33.47 C40.28,33.47 30.24,33.58 20.2,33.45 C20.19,35.54 20.18,37.63 20.16,39.72 C31.72,39.64 43.28,39.62 54.84,39.75 C54.83,29.1 54.85,18.45 54.79,7.79 C61.11,7.86 67.42,7.74 73.74,7.89 C81.43,18.04 89.23,28.13 97.44,37.86 C97.67,27.95 97.61,18.03 97.52,8.12 C101.49,7.75 105.49,7.8 109.47,8.15 C109.36,22.03 109.33,35.92 109.38,49.81 C103.21,50.39 97,50.02 90.81,50.17 C82.95,40.1 74.96,30.11 67.35,19.86 C66.87,29.97 67.25,40.11 67.13,50.24 C47.34,50.38 27.55,50.36 7.77,50.32 C7.9,36.16 7.87,22 7.84,7.84 Z" id="Shape" sketch:type="MSShapeGroup"></path>
            <path d="M192.47,26.37 C197.26,23.31 201.8,19.79 206.91,17.25 C206.81,22.26 206.92,27.27 206.89,32.28 C199.33,32.44 191.77,32.43 184.21,32.27 C186.5,29.72 189.77,28.43 192.47,26.37 L192.47,26.37 Z" id="Shape" sketch:type="MSShapeGroup"></path>
        </g>
    </g>
</svg>