<?xml version="1.0" encoding="UTF-8" standalone="no"?>
<svg width="142px" height="42px" viewBox="0 0 142 42" version="1.1" xmlns="http://www.w3.org/2000/svg" xmlns:xlink="http://www.w3.org/1999/xlink" xmlns:sketch="http://www.bohemiancoding.com/sketch/ns">
    <title>EVE Online</title>
    <description>Created with Sketch (http://www.bohemiancoding.com/sketch)</description>
    <defs></defs>
    <g id="Page-2" stroke="none" stroke-width="1" fill="none" fill-rule="evenodd" sketch:type="MSPage">
        <g id="EVE-Online" sketch:type="MSLayerGroup" fill="#FFFFFF">
            <path d="M0,21.322 L43.298,21.322 L43.298,13.949 L0,13.949 L0,21.322 L0,21.322 Z M0,10.199 L7.826,10.199 L7.826,7.667 L43.298,7.667 L43.298,0.292 L0,0.292 L0,10.199 L0,10.199 Z M7.826,25.035 L0,25.035 L0,34.971 L43.297,34.971 L43.297,27.596 L7.826,27.596 L7.826,25.035 L7.826,25.035 Z M106.094,25.035 L98.273,25.035 L98.273,34.971 L141.569,34.971 L141.569,27.596 L106.094,27.596 L106.094,25.035 L106.094,25.035 Z M70.794,26.805 C69.865,25.199 55.479,0.292 55.479,0.292 L46.968,0.292 L70.794,41.753 L94.602,0.292 L86.081,0.292 C86.082,0.292 71.719,25.199 70.794,26.805 L70.794,26.805 Z M98.273,0.292 L98.273,10.2 L106.094,10.2 L106.094,7.667 L141.569,7.667 L141.569,0.292 L98.273,0.292 L98.273,0.292 Z M98.273,21.322 L141.57,21.322 L141.57,13.949 L98.273,13.949 L98.273,21.322 L98.273,21.322 Z" id="Shape" sketch:type="MSShapeGroup"></path>
        </g>
    </g>
</svg>