<?xml version="1.0" encoding="UTF-8" standalone="no"?>
<svg width="54px" height="56px" viewBox="0 0 54 56" version="1.1" xmlns="http://www.w3.org/2000/svg" xmlns:xlink="http://www.w3.org/1999/xlink" xmlns:sketch="http://www.bohemiancoding.com/sketch/ns">
    <title>Journal43</title>
    <description>Created with Sketch (http://www.bohemiancoding.com/sketch)</description>
    <defs></defs>
    <g id="Page-2" stroke="none" stroke-width="1" fill="none" fill-rule="evenodd" sketch:type="MSPage">
        <g id="Journal43" sketch:type="MSLayerGroup" transform="translate(1.000000, 1.000000)" fill="#FFFFFF">
            <path d="M14.9538169,46.0230915 L-0.322715319,46.0230915 L-0.322715319,38.7987216 L10.7396011,0.41925637 L18.8670173,0.41925637 L7.35317773,38.7987216 L14.9538169,38.7987216 L14.9538169,23.5221894 L22.62971,23.5221894 L22.62971,38.7987216 L26.3171488,38.7987216 L26.3171488,46.0230915 L22.62971,46.0230915 L22.62971,54 L14.9538169,54 L14.9538169,46.0230915 Z M38.6587807,22.9954124 C40.9665771,22.9954124 42.5594344,22.7194844 43.4374004,22.16762 C44.3153665,21.6157557 44.7543429,20.3364529 44.7543429,18.3296735 L44.7543429,11.406319 C44.7543429,10.3025903 44.4157039,9.39955306 43.7384159,8.69718025 C43.0611278,7.99480743 42.1455484,7.6436263 40.9916502,7.6436263 C39.6370741,7.6436263 38.6713259,8.07006054 38.0943768,8.92294181 C37.5174278,9.77582308 37.2289575,10.6036072 37.2289575,11.406319 L37.2289575,15.7710425 L29.5530645,15.7710425 L29.5530645,11.3310651 C29.5530645,9.77581103 29.8540769,8.29583338 30.4561107,6.89108776 C31.0581446,5.48634214 31.8859287,4.28229253 32.9394879,3.2789028 C33.9930471,2.27551307 35.2221811,1.47281333 36.6269267,0.87077949 C38.0316723,0.268745653 39.5367343,-0.0322667506 41.1421579,-0.0322667506 C43.2492763,-0.0322667506 44.9926398,0.381625304 46.3723007,1.20942183 C47.7519616,2.03721836 48.7929628,2.87754465 49.4953356,3.73042592 C49.9970305,4.33245976 50.4360069,4.94702675 50.8122781,5.57414533 C51.1885492,6.20126391 51.4895616,6.92871055 51.7153243,7.75650708 C51.941087,8.5843036 52.1166776,9.58767828 52.2421013,10.7666612 C52.367525,11.9456441 52.4302359,13.3879952 52.4302359,15.0937578 C52.4302359,16.9500288 52.3926094,18.4550908 52.3173551,19.608989 C52.2421009,20.7628872 52.041426,21.7286353 51.7153243,22.5062623 C51.3892227,23.2838894 50.9126197,23.9486251 50.2855011,24.5004895 C49.6583825,25.0523538 48.7929719,25.6543786 47.6892432,26.3065819 C48.8933108,27.0591242 49.8088902,27.7614865 50.4360088,28.4136898 C51.0631274,29.0658932 51.5271882,29.8309664 51.8282051,30.7089324 C52.129222,31.5868984 52.3048126,32.6404418 52.3549821,33.8695942 C52.4051516,35.0987466 52.4302359,36.6665196 52.4302359,38.5729601 C52.4302359,40.3288921 52.3926094,41.7837854 52.3173551,42.9376835 C52.2421009,44.0915817 52.1292213,45.0573299 51.9787128,45.8349569 C51.8282043,46.6125839 51.6275294,47.2773197 51.376682,47.829184 C51.1258345,48.3810484 50.7997378,48.9579888 50.3983819,49.5600226 C49.4451616,50.9647683 48.2160277,52.1311913 46.7109431,53.0593268 C45.2058585,53.9874623 43.2743622,54.4515231 40.9163964,54.4515231 C39.7123287,54.4515231 38.433026,54.2508482 37.0784498,53.8494923 C35.7238737,53.4481364 34.4947397,52.7959429 33.391011,51.8928921 C32.2872823,50.9898413 31.3717029,49.8108761 30.6442454,48.355961 C29.9167878,46.9010459 29.5530645,45.1200558 29.5530645,43.0129374 L29.5530645,38.6482139 L37.2289575,38.6482139 L37.2289575,42.6366681 C37.2289575,43.8407358 37.5675965,44.8315683 38.2448846,45.6091953 C38.9221726,46.3868224 39.837752,46.7756301 40.9916502,46.7756301 C42.1455484,46.7756301 43.0611278,46.3868224 43.7384159,45.6091953 C44.4157039,44.8315683 44.7543429,43.7905671 44.7543429,42.4861604 L44.7543429,34.8102674 C44.7543429,33.7567082 44.6665476,32.9038397 44.4909544,32.2516364 C44.3153612,31.599433 44.0018066,31.0852035 43.5502812,30.7089324 C43.0987558,30.3326612 42.4841889,30.0818176 41.7065618,29.9563938 C40.9289348,29.8309701 39.9130179,29.7682592 38.6587807,29.7682592 L38.6587807,22.9954124 Z" id="43" sketch:type="MSShapeGroup"></path>
        </g>
    </g>
</svg>