<?xml version="1.0" encoding="UTF-8" standalone="no"?>
<svg width="88px" height="123px" viewBox="0 0 88 123" version="1.1" xmlns="http://www.w3.org/2000/svg" xmlns:xlink="http://www.w3.org/1999/xlink" xmlns:sketch="http://www.bohemiancoding.com/sketch/ns">
    <title>Mittani</title>
    <description>Created with Sketch (http://www.bohemiancoding.com/sketch)</description>
    <defs></defs>
    <g id="Page-2" stroke="none" stroke-width="1" fill="none" fill-rule="evenodd" sketch:type="MSPage">
        <g id="Mittani" sketch:type="MSLayerGroup" transform="translate(1.000000, 1.000000)" fill="#FFFFFF">
            <path d="M24.8971354,76.0852865 L3.76269534,102.464843 L8.70507815,103.823894 L5.08170571,111.287759 L10.3385419,103.457682 L6.03548183,101.434895 L23.9511723,78.9039712 L24.8971354,76.0852865 Z" id="Path-13" sketch:type="MSShapeGroup"></path>
            <path d="M41.05,3.02 C45.37,3.32 48.8,-0.09 52.99,-0.4 C59.28,-0.11 64.51,5.67 64.73,11.88 C64.86,17.54 66.32,23.02 68.69,28.13 C65.8,24.21 63.26,19.85 62.8,14.9 C62.12,10.78 60.87,5.25 56.13,4.21 C50.57,4.07 45.16,5.96 40.09,8.08 C35.21,10.09 31.04,13.56 25.99,15.19 C23.97,13.09 22.02,10.93 19.9,8.93 C18.99,6.04 22.49,4.5 24.56,3.45 C29.77,0.81 35.58,2.65 41.05,3.02 L41.05,3.02 Z" id="Shape" sketch:type="MSShapeGroup"></path>
            <path d="M84.91,30.13 C84.47,29.32 83.59,27.71 83.15,26.9 C85.23,28.34 87.12,31.66 84.79,33.74 C79.99,37.85 73.64,39.62 67.65,41.24 L66.34,40.48 C66.65,41.04 67.28,42.14 67.59,42.69 C64.76,45.35 62.03,48.13 59.37,50.96 C59.08,54.42 58.4,58.3 55.56,60.64 C52.44,62.89 47.75,62.55 44.8,60.15 C42.72,58.26 42.98,55.22 42.85,52.67 C41.56,51.7 39.94,49.82 38.35,51.41 C36.43,54.19 37.48,58.39 34.76,60.81 C31.43,63.36 26.44,62.1 23.58,59.41 C21.68,57.5 22.14,54.63 22.37,52.22 C21.03,50.76 19.69,49.29 18.57,47.64 C20.15,48.56 21.63,49.64 23.1,50.71 C26.89,47.54 32.53,47.52 36.68,50.01 C38.85,49.43 41.07,49.52 43.21,50.22 C47.18,45.73 54.57,45.91 59.21,49.25 C61.5,46.93 63.76,44.54 66.49,42.71 C65.94,42.42 65.39,42.14 64.83,41.87 C52.06,45.46 38.57,46.14 25.37,45.37 C38.78,39.8 53.37,38.32 67.14,33.89 C68.99,33.34 70.56,32.18 72.14,31.09 C71.68,30.59 70.77,29.57 70.31,29.07 C75.17,29.08 80.29,28.19 84.91,30.13 L84.91,30.13 Z" id="Shape" sketch:type="MSShapeGroup"></path>
            <path d="M-0.2,39.98 C5.29,35.26 13.06,35.65 19.81,34.44 C19.81,35.35 19.82,36.25 19.83,37.16 C18.22,37.64 16.59,38.07 14.95,38.48 C17.2,40.6 20.25,42.45 20.25,45.94 C13.3,45.91 4.05,46.74 -0.2,39.98 L-0.2,39.98 Z" id="Shape" sketch:type="MSShapeGroup"></path>
            <path d="M65.1,64.28 C67.17,64.83 69.02,65.95 70,67.92 C75.6,77.46 81.04,87.09 86.57,96.67 C84.94,97.67 83.31,98.66 81.68,99.66 C82.61,101.52 83.55,103.38 84.49,105.24 C83.28,107.1 82.09,108.97 80.82,110.79 C81.53,108.9 82.29,107.02 83.04,105.15 C82.26,103.29 81.48,101.42 80.74,99.54 C81.91,98.35 83.08,97.15 84.25,95.94 C79.54,86.93 74.93,77.86 69.91,69.02 C68.83,66.96 66.72,65.84 65.1,64.28 L65.1,64.28 Z" id="Shape" sketch:type="MSShapeGroup"></path>
            <path d="M64.96,79.51 C66.16,81.15 68.05,82.67 67.93,84.92 C67.95,89.08 66.34,93 65.11,96.91 C62.31,105.06 60.85,113.57 59.18,122 L54.31,122 C53.08,118.36 51.44,114.81 50.86,110.99 C50.91,108.76 53.46,108.06 54.88,106.8 C52.42,103.68 50.06,100.49 47.71,97.3 C54.26,93.96 60.16,89.43 65.33,84.22 C65.19,82.65 65.07,81.08 64.96,79.51 L64.96,79.51 Z" id="Shape" sketch:type="MSShapeGroup"></path>
            <path d="M29.7,89.02 C29.77,86.22 30.15,83.43 30.74,80.7 C32.22,83.64 33.18,87.02 35.71,89.3 C38.83,92.19 42.52,94.35 46.06,96.67 C43.2,101.28 40.42,105.94 37.38,110.43 C39.16,109.5 40.7,107.62 42.87,107.78 C41.89,112.53 40.44,117.18 39.8,122 L31.74,122 C29.84,111.13 29.39,100.04 29.7,89.02 L29.7,89.02 Z" id="Shape" sketch:type="MSShapeGroup"></path>
        </g>
    </g>
</svg>